<svg preserveAspectRatio="xMidYMid meet" data-bbox="0 -0.004 994.19 258.111" height="257.93" width="994.19" viewBox="0 -0.004 994.19 258.111" xmlns="http://www.w3.org/2000/svg" data-type="color" role="presentation" aria-hidden="true" aria-label="">
    <g>
        <g>
            <g>
                <path fill="#c60026" d="M520.706.798c7.384 2.59 11.27 10.677 8.68 18.062-2.59 7.384-10.677 11.27-18.061 8.68s-11.272-10.676-8.681-18.061c2.59-7.385 10.677-11.271 18.062-8.681" data-color="1"></path>
                <path d="M988.34 254.92a22.07 22.07 0 0 1-11.35 3 21.43 21.43 0 0 1-11.29-3 12.45 12.45 0 0 1-4.55-4.73 4.11 4.11 0 0 1 3.64-6 4 4 0 0 1 3.64 2.33 4.58 4.58 0 0 0 2.73 2.32 15.5 15.5 0 0 0 2.67.71 19 19 0 0 0 3.26.26q9.1 0 9.1-4.81 0-3.15-6-4.43c-3.82-.75-6.75-1.33-8.8-1.76a27 27 0 0 1-3.68-.91q-7.17-2.81-7.17-10.69 0-6.17 5.56-9.77a20.7 20.7 0 0 1 22 0 12.27 12.27 0 0 1 4.32 4.64 4.13 4.13 0 0 1-7.42 3.62 4.55 4.55 0 0 0-2.31-2.18 12.6 12.6 0 0 0-2.55-.79 17 17 0 0 0-3.09-.26 13.4 13.4 0 0 0-5.56 1c-1.91.85-2.86 2.07-2.86 3.64q0 3.24 6 4.55 12 2.25 12.56 2.64h-.07q7 2.91 7 10.74.06 6.2-5.78 9.88" fill="#000000" data-color="2"></path>
                <path d="M956.19 230.65a21.81 21.81 0 0 0-33.87-12.28v-12.75a4.38 4.38 0 0 0-4.37-4.38h-.35a4.4 4.4 0 0 0-4.38 4.38v30a21.83 21.83 0 1 0 43.65.73 21.4 21.4 0 0 0-.65-5.68Zm-21.14 18.18a12.74 12.74 0 1 1 12.73-12.75 12.73 12.73 0 0 1-12.73 12.73Zm-26.16-18.18a21.82 21.82 0 1 0-8.4 23.17 4.36 4.36 0 0 0 4.36 4.11h.35a4.38 4.38 0 0 0 4.38-4.37v-17.72a22.7 22.7 0 0 0-.69-5.19m-21.14 18.18a12.74 12.74 0 1 1 12.73-12.75 12.73 12.73 0 0 1-12.73 12.73Z" fill="#000000" data-color="2"></path>
                <path d="M857.55 201.24h.35a4.42 4.42 0 0 1 4.37 4.47v47.75a4.42 4.42 0 0 1-4.37 4.47h-.35a4.42 4.42 0 0 1-4.37-4.47v-47.75a4.42 4.42 0 0 1 4.37-4.47" fill="#000000" data-color="2"></path>
                <path d="M994.19 116.06a70.51 70.51 0 1 0-28 56.76v.25a14 14 0 0 0 28 0v-57Zm-70.5 43a42.5 42.5 0 1 1 42.5-43v.5a42.52 42.52 0 0 1-42.5 42.5" fill="#000000" data-color="2"></path>
                <path d="M839.19 116v57a14 14 0 0 1-28 0v-56.4c0-23.37-18.82-42.53-42-42.53s-42 19.16-42 42.53q-.09 37.76 0 56.45a14 14 0 0 1-28 0V116c.33-38.73 31.58-69.9 70-69.9s69.67 31.14 70 69.9" fill="#000000" data-color="2"></path>
                <path d="M685.19 116.06a70.51 70.51 0 1 0-28 56.76v.25a14 14 0 0 0 28 0v-57Zm-70.51 43a42.5 42.5 0 1 1 42.51-43v.5a42.51 42.51 0 0 1-42.51 42.51Z" fill="#000000" data-color="2"></path>
                <path d="M516.19 46.07a14 14 0 0 1 14 14v113a14 14 0 1 1-28 0v-113a14 14 0 0 1 14-14M404.19 173v-57c.33-38.74 31.58-69.92 70-69.92a14 14 0 0 1 0 28c-23.18 0-42 19.16-42 42.53q-.09 37.77 0 56.47a14 14 0 0 1-28 0" fill="#000000" data-color="2"></path>
                <path d="M390.19 116.06a70.51 70.51 0 1 0-28 56.76v.25a14 14 0 0 0 28 0v-57Zm-70.51 43a42.5 42.5 0 1 1 42.51-43v.5a42.51 42.51 0 0 1-42.51 42.51Z" fill="#000000" data-color="2"></path>
                <path d="M0 201.7 95.06 28.34h59.86L87.19 154A91.18 91.18 0 0 1 0 201.7" fill="#000000" data-color="2"></path>
                <path d="M250 201.7 154.92 28.34H95.06L162.79 154A91.2 91.2 0 0 0 250 201.7" fill="#c60026" data-color="1"></path>
            </g>
        </g>
    </g>
</svg>